<svg version="1.1" xmlns="http://www.w3.org/2000/svg" xmlns:xlink="http://www.w3.org/1999/xlink" width="95" height="90"><defs/><g><path fill="rgb(40,113,218)" stroke="none" paint-order="stroke fill markers" fill-rule="evenodd" d=" M 33.79849624633789 35.98416519165039 C 33.79849624633789 35.98416519165039 60.23081970214844 35.98416519165039 60.23081970214844 35.98416519165039 C 61.87781524658203 35.98416519165039 63.21458053588867 34.628944396972656 63.21458053588867 32.95458221435547 C 63.21458053588867 32.95458221435547 63.21458053588867 26.737804412841797 63.21458053588867 26.737804412841797 C 63.21458053588867 22.34667205810547 59.95625686645508 18.60376739501953 55.04302215576172 16.63648223876953 C 55.94014358520508 15.166141510009766 56.48516845703125 13.449287414550781 56.48516845703125 11.595012664794922 C 56.48516845703125 6.2931671142578125 52.236263275146484 1.9785804748535156 47.014705657958984 1.9785804748535156 C 41.793052673339844 1.9785804748535156 37.542144775390625 6.2931671142578125 37.542144775390625 11.595012664794922 C 37.542144775390625 13.449287414550781 38.085262298583984 15.167949676513672 38.984291076660156 16.638591766357422 C 34.07305908203125 18.605876922607422 30.814735412597656 22.348480224609375 30.814735412597656 26.737804412841797 C 30.814735412597656 26.737804412841797 30.814735412597656 32.95458221435547 30.814735412597656 32.95458221435547 C 30.814735412597656 34.626834869384766 32.1515007019043 35.98416519165039 33.79849624633789 35.98416519165039 Z M 43.509761810302734 11.593204498291016 C 43.509761810302734 9.631946563720703 45.083133697509766 8.036239624023438 47.014705657958984 8.036239624023438 C 48.94618225097656 8.036239624023438 50.51764678955078 9.631946563720703 50.51764678955078 11.593204498291016 C 50.51764678955078 13.554161071777344 48.94618225097656 15.14986801147461 47.014705657958984 15.14986801147461 C 45.083133697509766 15.1519775390625 43.509761810302734 13.556270599365234 43.509761810302734 11.593204498291016 Z M 47.014705657958984 21.211444854736328 C 52.8708381652832 21.211444854736328 57.248966217041016 24.12801742553711 57.248966217041016 26.737804412841797 C 57.248966217041016 26.737804412841797 57.248966217041016 29.924697875976562 57.248966217041016 29.924697875976562 C 57.248966217041016 29.924697875976562 36.782257080078125 29.924697875976562 36.782257080078125 29.924697875976562 C 36.782257080078125 29.924697875976562 36.782257080078125 26.737804412841797 36.782257080078125 26.737804412841797 C 36.782257080078125 24.12801742553711 41.158477783203125 21.211444854736328 47.014705657958984 21.211444854736328 Z M 25.233070373535156 68.65682983398438 C 26.130191802978516 67.18648910522461 26.675216674804688 65.47174453735352 26.675216674804688 63.617469787597656 C 26.675216674804688 58.31321334838867 22.426406860351562 53.999229431152344 17.20275115966797 53.999229431152344 C 11.981193542480469 53.999229431152344 7.732288360595703 58.31321334838867 7.732288360595703 63.617469787597656 C 7.732288360595703 65.46963500976562 8.275310516357422 67.1885986328125 9.174434661865234 68.65682983398438 C 4.261104583740234 70.62622451782227 1.0048789978027344 74.36491012573242 1.0048789978027344 78.75785064697266 C 1.0048789978027344 78.75785064697266 1.0048789978027344 84.97492980957031 1.0048789978027344 84.97492980957031 C 1.0048789978027344 86.64718246459961 2.3395462036132812 88.00481414794922 3.9886398315429688 88.00481414794922 C 3.9886398315429688 88.00481414794922 30.420867919921875 88.00481414794922 30.420867919921875 88.00481414794922 C 32.06996154785156 88.00481414794922 33.40462875366211 86.64718246459961 33.40462875366211 84.97492980957031 C 33.40462875366211 84.97492980957031 33.40462875366211 78.75785064697266 33.40462875366211 78.75785064697266 C 33.4027214050293 74.36491012573242 30.146400451660156 70.62411499023438 25.233070373535156 68.65682983398438 Z M 13.699810028076172 63.617469787597656 C 13.699810028076172 61.65410232543945 15.27127456665039 60.05839538574219 17.20275115966797 60.05839538574219 C 19.134227752685547 60.05839538574219 20.70769500732422 61.65410232543945 20.70769500732422 63.617469787597656 C 20.70769500732422 65.57872772216797 19.134227752685547 67.17232513427734 17.20275115966797 67.17232513427734 C 15.27127456665039 67.17021560668945 13.699810028076172 65.57661819458008 13.699810028076172 63.617469787597656 Z M 17.20275115966797 73.22968292236328 C 23.058883666992188 73.22968292236328 27.43710708618164 76.14625549316406 27.43710708618164 78.75574111938477 C 27.43710708618164 78.75574111938477 27.43710708618164 81.9432373046875 27.43710708618164 81.9432373046875 C 27.43710708618164 81.9432373046875 6.97039794921875 81.9432373046875 6.97039794921875 81.9432373046875 C 6.97039794921875 81.9432373046875 6.97039794921875 78.75574111938477 6.97039794921875 78.75574111938477 C 6.97039794921875 76.14836502075195 11.34661865234375 73.22968292236328 17.20275115966797 73.22968292236328 Z M 84.85287857055664 68.65472030639648 C 85.75 67.18648910522461 86.29512023925781 65.46963500976562 86.29512023925781 63.617469787597656 C 86.29512023925781 58.31321334838867 82.04621505737305 53.999229431152344 76.8245620727539 53.999229431152344 C 71.6030044555664 53.999229431152344 67.35409927368164 58.31321334838867 67.35409927368164 63.617469787597656 C 67.35409927368164 65.46963500976562 67.89712142944336 67.1885986328125 68.79624557495117 68.65472030639648 C 63.88091278076172 70.62411499023438 60.62468719482422 74.36491012573242 60.62468719482422 78.75785064697266 C 60.62468719482422 78.75785064697266 60.62468719482422 84.97492980957031 60.62468719482422 84.97492980957031 C 60.62468719482422 86.64718246459961 61.96135711669922 88.00481414794922 63.60844802856445 88.00481414794922 C 63.60844802856445 88.00481414794922 90.04267883300781 88.00481414794922 90.04267883300781 88.00481414794922 C 91.68976974487305 88.00481414794922 93.02643966674805 86.64718246459961 93.02643966674805 84.97492980957031 C 93.02643966674805 84.97492980957031 93.02643966674805 78.75785064697266 93.02643966674805 78.75785064697266 C 93.02643966674805 74.36491012573242 89.7682113647461 70.62200546264648 84.85287857055664 68.65472030639648 Z M 73.32362365722656 63.617469787597656 C 73.32362365722656 61.65410232543945 74.89508819580078 60.05839538574219 76.82656478881836 60.05839538574219 C 78.75804138183594 60.05839538574219 80.32950592041016 61.65410232543945 80.32950592041016 63.617469787597656 C 80.32950592041016 65.57872772216797 78.75804138183594 67.17232513427734 76.82656478881836 67.17232513427734 C 74.89508819580078 67.17232513427734 73.32362365722656 65.57661819458008 73.32362365722656 63.617469787597656 Z M 76.8245620727539 73.22968292236328 C 82.68069458007812 73.22968292236328 87.05891799926758 76.14625549316406 87.05891799926758 78.75574111938477 C 87.05891799926758 78.75574111938477 87.05891799926758 81.9432373046875 87.05891799926758 81.9432373046875 C 87.05891799926758 81.9432373046875 66.59220886230469 81.9432373046875 66.59220886230469 81.9432373046875 C 66.59220886230469 81.9432373046875 66.59220886230469 78.75574111938477 66.59220886230469 78.75574111938477 C 66.59220886230469 76.14836502075195 70.96842956542969 73.22968292236328 76.8245620727539 73.22968292236328 Z M 61.48394775390625 61.48443603515625 C 62.20606994628906 59.979740142822266 61.5953369140625 58.16584777832031 60.11542510986328 57.43082809448242 C 60.11542510986328 57.43082809448242 49.996463775634766 52.409549713134766 49.996463775634766 52.409549713134766 C 49.996463775634766 52.409549713134766 49.996463775634766 43.12853240966797 49.996463775634766 43.12853240966797 C 49.996463775634766 41.4538688659668 48.659698486328125 40.09864807128906 47.01270294189453 40.09864807128906 C 45.363609313964844 40.09864807128906 44.0289421081543 41.4538688659668 44.0289421081543 43.12853240966797 C 44.0289421081543 43.12853240966797 44.0289421081543 52.409549713134766 44.0289421081543 52.409549713134766 C 44.0289421081543 52.409549713134766 33.9158935546875 57.43082809448242 33.9158935546875 57.43082809448242 C 32.43397903442383 58.16584777832031 31.821243286132812 59.981849670410156 32.54536819458008 61.48443603515625 C 33.06254577636719 62.55878829956055 34.12474822998047 63.18320846557617 35.228721618652344 63.18320846557617 C 35.668365478515625 63.18320846557617 36.11592483520508 63.08406066894531 36.53763961791992 62.876121520996094 C 36.53763961791992 62.876121520996094 47.0166130065918 57.67523193359375 47.0166130065918 57.67523193359375 C 47.0166130065918 57.67523193359375 57.49568176269531 62.876121520996094 57.49568176269531 62.876121520996094 C 57.91939926147461 63.0861701965332 58.36495590209961 63.18320846557617 58.80459976196289 63.18320846557617 C 59.90456771850586 63.18320846557617 60.968772888183594 62.55878829956055 61.48394775390625 61.48443603515625 Z"/></g></svg>