<svg version="1.1" xmlns="http://www.w3.org/2000/svg" xmlns:xlink="http://www.w3.org/1999/xlink" width="72" height="84"><defs/><g><path fill="rgb(40,113,218)" stroke="none" paint-order="stroke fill markers" fill-rule="evenodd" d=" M 70.00787353515625 42.9891357421875 C 70.00787353515625 36.64458084106445 68.2536849975586 30.71771240234375 65.25285339355469 25.617778778076172 C 65.72539901733398 25.026206970214844 66.17000198364258 24.408416748046875 66.55013656616211 23.73788833618164 C 68.3879623413086 20.49343490600586 68.8884506225586 16.73666763305664 67.96081161499023 13.15890884399414 C 67.02792739868164 9.560054779052734 64.76285552978516 6.572360992431641 61.58244705200195 4.7464141845703125 C 55.23545837402344 1.1053695678710938 47.1359977722168 3.2769775390625 43.186641693115234 9.54257583618164 C 40.87102508544922 9.038700103759766 38.473487854003906 8.759639739990234 36.00967025756836 8.759639739990234 C 33.54585266113281 8.759639739990234 31.14822006225586 9.040508270263672 28.830886840820312 9.54257583618164 C 24.879718780517578 3.2769775390625 16.78388214111328 1.1053695678710938 10.435081481933594 4.7464141845703125 C 3.8928756713867188 8.499866485595703 1.6627082824707031 17.019344329833984 5.465675354003906 23.739696502685547 C 5.843997955322266 24.40660858154297 6.290412902832031 25.02801513671875 6.766391754150391 25.621395111083984 C 3.7672767639160156 30.721027374267578 2.01318359375 36.646087646484375 2.01318359375 42.990943908691406 C 2.01318359375 55.88166427612305 9.132553100585938 67.12062454223633 19.61562728881836 72.95618057250977 C 19.61562728881836 72.95618057250977 14.578128814697266 78.5931396484375 14.578128814697266 78.5931396484375 C 13.612056732177734 79.67261505126953 13.699317932128906 81.33673095703125 14.773345947265625 82.31103134155273 C 15.273834228515625 82.76397705078125 15.899826049804688 82.98698425292969 16.522289276123047 82.98698425292969 C 17.238975524902344 82.98698425292969 17.950416564941406 82.69225311279297 18.46826171875 82.11454391479492 C 18.46826171875 82.11454391479492 24.642635345458984 75.2064437866211 24.642635345458984 75.2064437866211 C 28.20317840576172 76.48632431030273 32.02006912231445 77.21833038330078 36.01310348510742 77.21833038330078 C 40.00442123413086 77.21833038330078 43.823028564453125 76.48632431030273 47.3836669921875 75.2064437866211 C 47.3836669921875 75.2064437866211 53.55622863769531 82.11454391479492 53.55622863769531 82.11454391479492 C 54.072357177734375 82.69225311279297 54.78551483154297 82.98698425292969 55.500484466552734 82.98698425292969 C 56.122947692871094 82.98698425292969 56.75065612792969 82.76397705078125 57.249332427978516 82.31103134155273 C 58.323455810546875 81.33673095703125 58.410621643066406 79.67261505126953 57.444644927978516 78.5931396484375 C 57.444644927978516 78.5931396484375 52.40714645385742 72.95618057250977 52.40714645385742 72.95618057250977 C 62.88669204711914 67.11881637573242 70.00787353515625 55.87985610961914 70.00787353515625 42.9891357421875 Z M 58.9930305480957 9.322883605957031 C 60.937286376953125 10.439727783203125 62.32516860961914 12.274112701416016 62.90061569213867 14.489418029785156 C 63.4725341796875 16.694778442382812 63.16392517089844 19.010135650634766 62.05489730834961 21.027145385742188 C 58.447242736816406 16.69809341430664 53.791690826416016 13.295726776123047 48.490882873535156 11.180473327636719 C 51.14305114746094 8.199409484863281 55.50572967529297 7.320037841796875 58.9930305480957 9.322883605957031 Z M 13.024497985839844 9.322883605957031 C 16.51361083984375 7.323352813720703 20.87447738647461 8.201217651367188 23.528362274169922 11.180473327636719 C 18.227649688720703 13.295726776123047 13.572002410888672 16.699901580810547 9.964347839355469 21.028953552246094 C 7.667900085449219 16.85088348388672 9.019256591796875 11.621063232421875 13.024497985839844 9.322883605957031 Z M 36.00967025756836 71.95023727416992 C 20.147396087646484 71.95023727416992 7.242465972900391 58.959163665771484 7.242465972900391 42.9891357421875 C 7.242465972900391 27.01880645751953 20.147396087646484 14.026226043701172 36.00967025756836 14.026226043701172 C 51.871849060058594 14.026226043701172 64.77677917480469 27.01880645751953 64.77677917480469 42.9891357421875 C 64.77677917480469 58.959163665771484 51.871849060058594 71.95023727416992 36.00967025756836 71.95023727416992 Z M 36.00967025756836 24.770050048828125 C 37.45343780517578 24.770050048828125 38.6251220703125 23.592029571533203 38.6251220703125 22.136756896972656 C 38.6251220703125 22.136756896972656 38.6251220703125 17.669078826904297 38.6251220703125 17.669078826904297 C 38.6251220703125 16.213504791259766 37.45343780517578 15.035785675048828 36.00967025756836 15.035785675048828 C 34.564090728759766 15.035785675048828 33.39412307739258 16.213504791259766 33.39412307739258 17.669078826904297 C 33.39412307739258 17.669078826904297 33.39412307739258 22.136756896972656 33.39412307739258 22.136756896972656 C 33.39412307739258 23.592029571533203 34.564090728759766 24.770050048828125 36.00967025756836 24.770050048828125 Z M 36.00967025756836 61.206111907958984 C 34.564090728759766 61.206111907958984 33.39412307739258 62.38594055175781 33.39412307739258 63.83940505981445 C 33.39412307739258 63.83940505981445 33.39412307739258 68.30708312988281 33.39412307739258 68.30708312988281 C 33.39412307739258 69.76084899902344 34.564090728759766 70.94067764282227 36.00967025756836 70.94067764282227 C 37.45343780517578 70.94067764282227 38.6251220703125 69.76084899902344 38.6251220703125 68.30708312988281 C 38.6251220703125 68.30708312988281 38.6251220703125 63.83940505981445 38.6251220703125 63.83940505981445 C 38.6251220703125 62.38594055175781 37.45343780517578 61.206111907958984 36.00967025756836 61.206111907958984 Z M 15.299964904785156 40.35554122924805 C 15.299964904785156 40.35554122924805 10.862327575683594 40.35554122924805 10.862327575683594 40.35554122924805 C 9.41684341430664 40.35554122924805 8.246780395507812 41.53356170654297 8.246780395507812 42.9891357421875 C 8.246780395507812 44.442298889160156 9.41684341430664 45.62242889404297 10.862327575683594 45.62242889404297 C 10.862327575683594 45.62242889404297 15.299964904785156 45.62242889404297 15.299964904785156 45.62242889404297 C 16.74544906616211 45.62242889404297 17.915512084960938 44.442298889160156 17.915512084960938 42.9891357421875 C 17.915512084960938 41.53356170654297 16.743732452392578 40.35554122924805 15.299964904785156 40.35554122924805 Z M 61.156917572021484 40.35554122924805 C 61.156917572021484 40.35554122924805 56.71928024291992 40.35554122924805 56.71928024291992 40.35554122924805 C 55.2755126953125 40.35554122924805 54.10373306274414 41.53356170654297 54.10373306274414 42.9891357421875 C 54.10373306274414 44.442298889160156 55.2755126953125 45.62242889404297 56.71928024291992 45.62242889404297 C 56.71928024291992 45.62242889404297 61.156917572021484 45.62242889404297 61.156917572021484 45.62242889404297 C 62.600685119628906 45.62242889404297 63.772464752197266 44.442298889160156 63.772464752197266 42.9891357421875 C 63.772464752197266 41.53356170654297 62.600685119628906 40.35554122924805 61.156917572021484 40.35554122924805 Z M 38.6251220703125 41.9708366394043 C 38.6251220703125 41.9708366394043 38.6251220703125 29.371231079101562 38.6251220703125 29.371231079101562 C 38.6251220703125 27.915958404541016 37.45343780517578 26.738239288330078 36.00967025756836 26.738239288330078 C 34.564090728759766 26.738239288330078 33.39412307739258 27.915958404541016 33.39412307739258 29.371231079101562 C 33.39412307739258 29.371231079101562 33.39412307739258 42.9891357421875 33.39412307739258 42.9891357421875 C 33.39412307739258 43.27151107788086 33.449913024902344 43.538516998291016 33.53183364868164 43.79286575317383 C 33.54232406616211 43.829933166503906 33.55109786987305 43.864891052246094 33.56502151489258 43.90165710449219 C 33.67488479614258 44.20211410522461 33.840538024902344 44.472434997558594 34.04452896118164 44.70930480957031 C 34.05845260620117 44.725276947021484 34.0601692199707 44.744564056396484 34.074188232421875 44.758426666259766 C 34.074188232421875 44.758426666259766 44.642616271972656 56.45907211303711 44.642616271972656 56.45907211303711 C 45.15874481201172 57.03135681152344 45.86665725708008 57.321266174316406 46.57628631591797 57.321266174316406 C 47.2040901184082 57.321266174316406 47.83523178100586 57.094642639160156 48.33572006225586 56.634464263916016 C 49.404598236083984 55.65715026855469 49.48299026489258 53.99092483520508 48.51176834106445 52.91657257080078 C 48.51176834106445 52.91657257080078 38.6251220703125 41.9708366394043 38.6251220703125 41.9708366394043 Z"/></g></svg>