<svg version="1.1" xmlns="http://www.w3.org/2000/svg" xmlns:xlink="http://www.w3.org/1999/xlink" width="91" height="87"><defs/><g><path fill="rgb(40,113,218)" stroke="none" paint-order="stroke fill markers" fill-rule="evenodd" d=" M 87.11371994018555 1.97698974609375 C 87.11371994018555 1.97698974609375 4.872852325439453 1.97698974609375 4.872852325439453 1.97698974609375 C 3.283649444580078 1.97698974609375 1.9972381591796875 3.255664825439453 1.9972381591796875 4.835399627685547 C 1.9972381591796875 4.835399627685547 1.9972381591796875 64.54376983642578 1.9972381591796875 64.54376983642578 C 1.9972381591796875 66.12169647216797 3.283649444580078 67.40217971801758 4.872852325439453 67.40217971801758 C 4.872852325439453 67.40217971801758 32.744651794433594 67.40217971801758 32.744651794433594 67.40217971801758 C 32.744651794433594 67.40217971801758 32.744651794433594 80.26698303222656 32.744651794433594 80.26698303222656 C 32.744651794433594 80.26698303222656 27.329021453857422 80.26698303222656 27.329021453857422 80.26698303222656 C 25.739818572998047 80.26698303222656 24.453407287597656 81.54776763916016 24.453407287597656 83.12539291381836 C 24.453407287597656 84.70331954956055 25.739818572998047 85.98380279541016 27.329021453857422 85.98380279541016 C 27.329021453857422 85.98380279541016 64.65755081176758 85.98380279541016 64.65755081176758 85.98380279541016 C 66.24484634399414 85.98380279541016 67.5330696105957 84.70331954956055 67.5330696105957 83.12539291381836 C 67.5330696105957 81.54776763916016 66.24484634399414 80.26698303222656 64.65755081176758 80.26698303222656 C 64.65755081176758 80.26698303222656 59.24382781982422 80.26698303222656 59.24382781982422 80.26698303222656 C 59.24382781982422 80.26698303222656 59.24382781982422 67.40217971801758 59.24382781982422 67.40217971801758 C 59.24382781982422 67.40217971801758 87.11371994018555 67.40217971801758 87.11371994018555 67.40217971801758 C 88.70101547241211 67.40217971801758 89.98933410644531 66.12169647216797 89.98933410644531 64.54376983642578 C 89.98933410644531 64.54376983642578 89.98933410644531 4.835399627685547 89.98933410644531 4.835399627685547 C 89.98933410644531 3.255664825439453 88.70101547241211 1.97698974609375 87.11371994018555 1.97698974609375 Z M 84.23820114135742 7.693809509277344 C 84.23820114135742 7.693809509277344 84.23820114135742 46.32438278198242 84.23820114135742 46.32438278198242 C 84.23820114135742 46.32438278198242 7.748371124267578 46.32438278198242 7.748371124267578 46.32438278198242 C 7.748371124267578 46.32438278198242 7.748371124267578 7.693809509277344 7.748371124267578 7.693809509277344 C 7.748371124267578 7.693809509277344 84.23820114135742 7.693809509277344 84.23820114135742 7.693809509277344 Z M 53.49269485473633 80.26698303222656 C 53.49269485473633 80.26698303222656 38.495784759521484 80.26698303222656 38.495784759521484 80.26698303222656 C 38.495784759521484 80.26698303222656 38.495784759521484 67.40217971801758 38.495784759521484 67.40217971801758 C 38.495784759521484 67.40217971801758 53.49269485473633 67.40217971801758 53.49269485473633 67.40217971801758 C 53.49269485473633 67.40217971801758 53.49269485473633 80.26698303222656 53.49269485473633 80.26698303222656 Z M 7.748371124267578 61.685359954833984 C 7.748371124267578 61.685359954833984 7.748371124267578 52.041202545166016 7.748371124267578 52.041202545166016 C 7.748371124267578 52.041202545166016 84.23820114135742 52.041202545166016 84.23820114135742 52.041202545166016 C 84.23820114135742 52.041202545166016 84.23820114135742 61.685359954833984 84.23820114135742 61.685359954833984 C 84.23820114135742 61.685359954833984 7.748371124267578 61.685359954833984 7.748371124267578 61.685359954833984 Z M 50.1187858581543 54.00396728515625 C 50.1187858581543 54.00396728515625 41.61859130859375 54.00396728515625 41.61859130859375 54.00396728515625 C 40.029388427734375 54.00396728515625 38.743072509765625 55.284751892089844 38.743072509765625 56.86237716674805 C 38.743072509765625 58.440303802490234 40.029388427734375 59.720787048339844 41.61859130859375 59.720787048339844 C 41.61859130859375 59.720787048339844 50.1187858581543 59.720787048339844 50.1187858581543 59.720787048339844 C 51.70608139038086 59.720787048339844 52.99430465698242 58.440303802490234 52.99430465698242 56.86237716674805 C 52.99430465698242 55.284751892089844 51.70608139038086 54.00396728515625 50.1187858581543 54.00396728515625 Z M 27.2677001953125 42.421756744384766 C 35.83684539794922 42.421756744384766 42.80906295776367 35.50823211669922 42.80906295776367 27.01105499267578 C 42.80906295776367 26.668106079101562 42.77845001220703 26.332691192626953 42.75727844238281 25.99365997314453 C 42.80143356323242 25.732379913330078 42.822509765625 25.465675354003906 42.789894104003906 25.189327239990234 C 42.75727844238281 24.91478729248047 42.67488098144531 24.661643981933594 42.571407318115234 24.419349670410156 C 41.323333740234375 17.15323257446289 34.943443298339844 11.600353240966797 27.2677001953125 11.600353240966797 C 18.69845962524414 11.600353240966797 11.7281494140625 18.513877868652344 11.7281494140625 27.01105499267578 C 11.7281494140625 35.50823211669922 18.69845962524414 42.421756744384766 27.2677001953125 42.421756744384766 Z M 36.201053619384766 23.081607818603516 C 36.201053619384766 23.081607818603516 30.143218994140625 23.794326782226562 30.143218994140625 23.794326782226562 C 30.143218994140625 23.794326782226562 30.143218994140625 17.79181671142578 30.143218994140625 17.79181671142578 C 32.84812545776367 18.620861053466797 35.06045913696289 20.549270629882812 36.201053619384766 23.081607818603516 Z M 24.392086029052734 17.79181671142578 C 24.392086029052734 17.79181671142578 24.392086029052734 27.009246826171875 24.392086029052734 27.009246826171875 C 24.392086029052734 27.066505432128906 24.405532836914062 27.118038177490234 24.409347534179688 27.173187255859375 C 24.4112548828125 27.230144500732422 24.405532836914062 27.285594940185547 24.4112548828125 27.342853546142578 C 24.413162231445312 27.367263793945312 24.428516387939453 27.384441375732422 24.432331085205078 27.409454345703125 C 24.476486206054688 27.721664428710938 24.570423126220703 28.013381958007812 24.708419799804688 28.28400421142578 C 24.731403350830078 28.3280029296875 24.752479553222656 28.368083953857422 24.7774658203125 28.411479949951172 C 24.927001953125 28.672760009765625 25.110965728759766 28.90721893310547 25.33145523071289 29.107322692871094 C 25.364070892333984 29.137760162353516 25.39859390258789 29.160362243652344 25.433021545410156 29.18899154663086 C 25.66695785522461 29.383670806884766 25.923782348632812 29.545501708984375 26.211410522460938 29.660018920898438 C 26.240116119384766 29.67116928100586 26.270824432373047 29.676895141601562 26.299530029296875 29.686538696289062 C 26.6024169921875 29.795330047607422 26.922565460205078 29.863739013671875 27.25997543334961 29.863739013671875 C 27.261882781982422 29.863739013671875 27.261882781982422 29.863739013671875 27.263790130615234 29.863739013671875 C 27.263790130615234 29.863739013671875 27.265697479248047 29.863739013671875 27.265697479248047 29.863739013671875 C 27.265697479248047 29.863739013671875 27.265697479248047 29.863739013671875 27.265697479248047 29.863739013671875 C 27.2677001953125 29.863739013671875 27.2677001953125 29.863739013671875 27.269607543945312 29.863739013671875 C 27.378803253173828 29.863739013671875 27.490001678466797 29.858013153076172 27.601200103759766 29.84475326538086 C 27.601200103759766 29.84475326538086 36.87587356567383 28.75653839111328 36.87587356567383 28.75653839111328 C 36.03997802734375 33.267311096191406 32.058292388916016 36.701019287109375 27.263790130615234 36.701019287109375 C 21.865421295166016 36.701019287109375 17.475467681884766 32.352378845214844 17.475467681884766 27.00743865966797 C 17.477375030517578 22.662715911865234 20.40277099609375 19.015342712402344 24.392086029052734 17.79181671142578 Z M 50.38905715942383 20.87895965576172 C 50.38905715942383 20.87895965576172 77.38671875 20.87895965576172 77.38671875 20.87895965576172 C 78.97401428222656 20.87895965576172 80.26223754882812 19.59998321533203 80.26223754882812 18.020549774169922 C 80.26223754882812 16.440814971923828 78.97401428222656 15.162139892578125 77.38671875 15.162139892578125 C 77.38671875 15.162139892578125 50.38905715942383 15.162139892578125 50.38905715942383 15.162139892578125 C 48.801761627197266 15.162139892578125 47.5135383605957 16.440814971923828 47.5135383605957 18.020549774169922 C 47.5135383605957 19.59998321533203 48.801761627197266 20.87895965576172 50.38905715942383 20.87895965576172 Z M 50.38905715942383 29.867656707763672 C 50.38905715942383 29.867656707763672 70.22080993652344 29.867656707763672 70.22080993652344 29.867656707763672 C 71.80810546875 29.867656707763672 73.09632873535156 28.588680267333984 73.09632873535156 27.009246826171875 C 73.09632873535156 25.42951202392578 71.80810546875 24.150836944580078 70.22080993652344 24.150836944580078 C 70.22080993652344 24.150836944580078 50.38905715942383 24.150836944580078 50.38905715942383 24.150836944580078 C 48.801761627197266 24.150836944580078 47.5135383605957 25.42951202392578 47.5135383605957 27.009246826171875 C 47.5135383605957 28.588680267333984 48.801761627197266 29.867656707763672 50.38905715942383 29.867656707763672 Z M 50.38905715942383 38.856353759765625 C 50.38905715942383 38.856353759765625 73.88616180419922 38.856353759765625 73.88616180419922 38.856353759765625 C 75.47345733642578 38.856353759765625 76.76177597045898 37.57767868041992 76.76177597045898 35.99794387817383 C 76.76177597045898 34.418209075927734 75.47345733642578 33.13953399658203 73.88616180419922 33.13953399658203 C 73.88616180419922 33.13953399658203 50.38905715942383 33.13953399658203 50.38905715942383 33.13953399658203 C 48.801761627197266 33.13953399658203 47.5135383605957 34.418209075927734 47.5135383605957 35.99794387817383 C 47.5135383605957 37.57767868041992 48.801761627197266 38.856353759765625 50.38905715942383 38.856353759765625 Z"/></g></svg>