<svg version="1.1" xmlns="http://www.w3.org/2000/svg" xmlns:xlink="http://www.w3.org/1999/xlink" width="75" height="87"><defs/><g><path fill="rgb(40,113,218)" stroke="none" paint-order="stroke fill markers" fill-rule="evenodd" d=" M 70.10144424438477 1.0069084167480469 C 70.10144424438477 1.0069084167480469 4.882804870605469 1.0069084167480469 4.882804870605469 1.0069084167480469 C 3.2773895263671875 1.0069084167480469 1.9781036376953125 2.28076171875 1.9781036376953125 3.855072021484375 C 1.9781036376953125 3.855072021484375 1.9781036376953125 82.1794204711914 1.9781036376953125 82.1794204711914 C 1.9781036376953125 83.75162124633789 3.2773895263671875 85.02758407592773 4.882804870605469 85.02758407592773 C 4.882804870605469 85.02758407592773 70.10144424438477 85.02758407592773 70.10144424438477 85.02758407592773 C 71.7048568725586 85.02758407592773 73.00624084472656 83.75162124633789 73.00624084472656 82.1794204711914 C 73.00624084472656 82.1794204711914 73.00624084472656 3.855072021484375 73.00624084472656 3.855072021484375 C 73.00624084472656 2.28076171875 71.7048568725586 1.0069084167480469 70.10144424438477 1.0069084167480469 Z M 26.491920471191406 6.703235626220703 C 26.491920471191406 6.703235626220703 48.490325927734375 6.703235626220703 48.490325927734375 6.703235626220703 C 48.490325927734375 6.703235626220703 48.490325927734375 14.142635345458984 48.490325927734375 14.142635345458984 C 48.490325927734375 14.142635345458984 26.491920471191406 14.142635345458984 26.491920471191406 14.142635345458984 C 26.491920471191406 14.142635345458984 26.491920471191406 6.703235626220703 26.491920471191406 6.703235626220703 Z M 67.19674301147461 79.33125686645508 C 67.19674301147461 79.33125686645508 7.787506103515625 79.33125686645508 7.787506103515625 79.33125686645508 C 7.787506103515625 79.33125686645508 7.787506103515625 6.703235626220703 7.787506103515625 6.703235626220703 C 7.787506103515625 6.703235626220703 20.684425354003906 6.703235626220703 20.684425354003906 6.703235626220703 C 20.684425354003906 6.703235626220703 20.684425354003906 16.990798950195312 20.684425354003906 16.990798950195312 C 20.684425354003906 18.564807891845703 21.983806610107422 19.83896255493164 23.589126586914062 19.83896255493164 C 23.589126586914062 19.83896255493164 51.39512252807617 19.83896255493164 51.39512252807617 19.83896255493164 C 52.99843978881836 19.83896255493164 54.29982376098633 18.564807891845703 54.29982376098633 16.990798950195312 C 54.29982376098633 16.990798950195312 54.29982376098633 6.703235626220703 54.29982376098633 6.703235626220703 C 54.29982376098633 6.703235626220703 67.19674301147461 6.703235626220703 67.19674301147461 6.703235626220703 C 67.19674301147461 6.703235626220703 67.19674301147461 79.33125686645508 67.19674301147461 79.33125686645508 Z M 27.901737213134766 46.14657974243164 C 27.901737213134766 46.14657974243164 47.08251190185547 46.14657974243164 47.08251190185547 46.14657974243164 C 48.6859245300293 46.14657974243164 49.987308502197266 44.87031555175781 49.987308502197266 43.29841613769531 C 49.987308502197266 43.29841613769531 49.987308502197266 40.761558532714844 49.987308502197266 40.761558532714844 C 49.987308502197266 37.609622955322266 47.764198303222656 34.89435958862305 44.3463249206543 33.33361053466797 C 44.81686782836914 32.36322784423828 45.101539611816406 31.292190551757812 45.101539611816406 30.149429321289062 C 45.101539611816406 26.034645080566406 41.68748092651367 22.685016632080078 37.493125915527344 22.685016632080078 C 33.29676818847656 22.685016632080078 29.880802154541016 26.0328369140625 29.880802154541016 30.149429321289062 C 29.880802154541016 31.292190551757812 30.16547393798828 32.36503601074219 30.636016845703125 33.33361053466797 C 27.220050811767578 34.89616775512695 24.99703598022461 37.607513427734375 24.99703598022461 40.761558532714844 C 24.99703598022461 40.761558532714844 24.99703598022461 43.29841613769531 24.99703598022461 43.29841613769531 C 24.99703598022461 44.8724250793457 26.296321868896484 46.14657974243164 27.901737213134766 46.14657974243164 Z M 30.88387680053711 40.450252532958984 C 31.261531829833984 39.217987060546875 33.788578033447266 37.61534881591797 37.493125915527344 37.61534881591797 C 41.19757843017578 37.61534881591797 43.72271728515625 39.217987060546875 44.10227966308594 40.450252532958984 C 44.10227966308594 40.450252532958984 30.88387680053711 40.450252532958984 30.88387680053711 40.450252532958984 Z M 35.688297271728516 30.15123748779297 C 35.688297271728516 29.17723846435547 36.49577331542969 28.383453369140625 37.49112319946289 28.383453369140625 C 38.48265838623047 28.383453369140625 39.29013442993164 29.175128936767578 39.29013442993164 30.15123748779297 C 39.29013442993164 31.12734603881836 38.48265838623047 31.92082977294922 37.49112319946289 31.92082977294922 C 36.49777603149414 31.918720245361328 35.688297271728516 31.12523651123047 35.688297271728516 30.15123748779297 Z M 51.39512252807617 50.906578063964844 C 51.39512252807617 50.906578063964844 23.58721923828125 50.906578063964844 23.58721923828125 50.906578063964844 C 21.98189926147461 50.906578063964844 20.682518005371094 52.18284225463867 20.682518005371094 53.75474166870117 C 20.682518005371094 55.32724380493164 21.98189926147461 56.6029052734375 23.58721923828125 56.6029052734375 C 23.58721923828125 56.6029052734375 51.39512252807617 56.6029052734375 51.39512252807617 56.6029052734375 C 52.99843978881836 56.6029052734375 54.29982376098633 55.32724380493164 54.29982376098633 53.75474166870117 C 54.29982376098633 52.18284225463867 52.99843978881836 50.906578063964844 51.39512252807617 50.906578063964844 Z M 51.39512252807617 59.33896255493164 C 51.39512252807617 59.33896255493164 23.58721923828125 59.33896255493164 23.58721923828125 59.33896255493164 C 21.98189926147461 59.33896255493164 20.682518005371094 60.614925384521484 20.682518005371094 62.18742752075195 C 20.682518005371094 63.75932693481445 21.98189926147461 65.03559112548828 23.58721923828125 65.03559112548828 C 23.58721923828125 65.03559112548828 51.39512252807617 65.03559112548828 51.39512252807617 65.03559112548828 C 52.99843978881836 65.03559112548828 54.29982376098633 63.75932693481445 54.29982376098633 62.18742752075195 C 54.29982376098633 60.614925384521484 52.99843978881836 59.33896255493164 51.39512252807617 59.33896255493164 Z M 51.39512252807617 67.76773071289062 C 51.39512252807617 67.76773071289062 23.58721923828125 67.76773071289062 23.58721923828125 67.76773071289062 C 21.98189926147461 67.76773071289062 20.682518005371094 69.04369354248047 20.682518005371094 70.61589431762695 C 20.682518005371094 72.18809509277344 21.98189926147461 73.46405792236328 23.58721923828125 73.46405792236328 C 23.58721923828125 73.46405792236328 51.39512252807617 73.46405792236328 51.39512252807617 73.46405792236328 C 52.99843978881836 73.46405792236328 54.29982376098633 72.18809509277344 54.29982376098633 70.61589431762695 C 54.29982376098633 69.04369354248047 52.99843978881836 67.76773071289062 51.39512252807617 67.76773071289062 Z"/></g></svg>